<svg height="512pt" viewBox="0 0 512 512.00309" width="512pt" xmlns="http://www.w3.org/2000/svg"><path d="m261.351562 293.074219c-9.046874-4.289063-17.648437-9.828125-25.121093-17.300781-7.476563-7.476563-13.015625-16.078126-17.304688-25.125l-25.125 25.125 42.429688 42.425781zm0 0"/><path d="m86.855469 467.574219-44.429688 44.429687-42.425781-42.425781 44.429688-44.429687zm0 0"/><path d="m65.636719 403.933594 106.949219-106.945313 42.421874 42.425781-106.945312 106.945313zm0 0"/><path d="m342.292969 254.558594c23.433593-23.433594 23.433593-61.421875 0-84.851563-23.429688-23.433593-61.421875-23.433593-84.851563 0-23.429687 23.429688-23.429687 61.421875 0 84.851563 23.429688 23.429687 61.421875 23.429687 84.851563 0zm-42.425781-63.640625 21.214843 21.214843-21.214843 21.210938-21.214844-21.210938zm0 0"/><path d="m476.730469 346.570312c8.792969-4.734374 17.238281-10.34375 24.664062-17.765624l10.605469-10.609376-84.851562-84.851562-10.609376 10.605469c-12.414062 12.417969-28.121093 19.242187-44.304687 21.132812-2.695313 3.679688-5.402344 7.363281-8.726563 10.6875-11.644531 11.644531-25.792968 19.050781-40.671874 22.96875l30.066406 30.066407c25.199218 25.199218 60.007812 34.765624 92.628906 28.992187l-28.992188-28.992187 21.214844-21.214844zm0 0"/><path d="m213.261719 189.164062c3.917969-14.878906 11.324219-29.027343 22.96875-40.671874 3.324219-3.324219 7.003906-6.03125 10.6875-8.726563 1.890625-16.179687 8.71875-31.890625 21.128906-44.304687l10.605469-10.605469-84.851563-84.855469-10.605469 10.605469c-7.425781 7.425781-13.03125 15.871093-17.765624 24.660156l38.980468 38.980469-21.214844 21.210937-28.992187-28.988281c-5.773437 32.617188 3.792969 67.429688 28.992187 92.628906zm0 0"/></svg>