<svg id="Capa_1" enable-background="new 0 0 509.169 509.169" height="512" viewBox="0 0 509.169 509.169" width="512" xmlns="http://www.w3.org/2000/svg"><g><path d="m209.585 260h90v115h-90z"/><path d="m269.585 405v30h-30v-30h-30v104.167h90v-104.167z"/><path d="m126.744 145.001c-7.975 10.183-13.428 22.304-15.775 35.036-.896 4.844-1.385 9.833-1.385 14.94v19.292 15.731h130v-42.5h30v42.5h130v-15.73-19.292c0-5.107-.489-10.097-1.385-14.94-2.346-12.731-7.799-24.852-15.775-35.036-14.299-18.273-36.233-30.002-60.798-30.002h-134.082c-24.566 0-46.5 11.729-60.8 30.001z"/><path d="m179.585 260h-70v190 5.454c0 8.842 2.112 17.183 5.828 24.547 8.601 17.42 27.172 29.348 46.682 29.166h17.49z"/><path d="m414.207 138.465c15.139-8.619 25.378-24.894 25.378-43.526v-44.878c0-27.604-22.458-50.061-50.061-50.061h-45.772v87.326c29.849 6.359 55.207 25.314 70.455 51.139z"/><path d="m190.418 0h123.334v85h-123.334z"/><path d="m440.987 201.431-11.402-5.701v33.629c12.388 7.093 20 20.112 20 34.524v146.293c0 14.744-8.061 27.633-20 34.517v10.761c0 7.793-1.078 15.332-3.051 22.496 30.424-7.532 53.051-35.055 53.051-67.774v-146.293c0-26.617-14.791-50.548-38.598-62.452z"/><path d="m79.585 455.454v-10.761c-11.939-6.884-20-19.773-20-34.517v-146.293c0-14.413 7.612-27.432 20-34.524v-33.629l-11.403 5.701c-23.807 11.904-38.597 35.835-38.597 62.452v146.293c0 32.719 22.626 60.241 53.051 67.774-1.974-7.164-3.051-14.702-3.051-22.496z"/><path d="m93.818 140.444c14.275-25.361 38.18-44.407 66.6-51.927v-88.517h-45.772c-27.604 0-50.061 22.457-50.061 50.061v44.879c0 20.173 12.001 37.585 29.233 45.504z"/><path d="m349.48 509.104c14.381-.585 28.203-7.642 37.394-18.671 2.671-3.178 4.988-6.677 6.883-10.432 3.716-7.363 5.828-15.705 5.828-24.547v-5.454-190h-70v249.167s19.097-.025 19.895-.063z"/></g></svg>