<?xml version="1.0" encoding="iso-8859-1"?>
<!-- Generator: Adobe Illustrator 19.0.0, SVG Export Plug-In . SVG Version: 6.00 Build 0)  -->
<svg version="1.1" id="Capa_1" xmlns="http://www.w3.org/2000/svg" xmlns:xlink="http://www.w3.org/1999/xlink" x="0px" y="0px"
	 viewBox="0 0 511.999 511.999" style="enable-background:new 0 0 511.999 511.999;" xml:space="preserve">
<g>
	<g>
		<path d="M454.246,240.392c-23.931-24.064-37.11-56.005-37.11-89.937c0-19.053,4.102-37.382,12.192-54.479
			c2.164-4.573,1.877-9.93-0.764-14.246c-21.709-35.474-53.02-63.193-90.547-80.164c-4.581-2.071-9.894-1.711-14.15,0.96
			C307.565,12.75,289.495,18.992,271,21.187v377.085h141.956c37.386-76.4,45.216-142.583,45.559-145.62
			C459.025,248.129,457.455,243.619,454.246,240.392z"/>
	</g>
</g>
<g>
	<g>
		<path d="M204.212,11.084c-5.642-2.508-11.165-5.459-16.416-8.771c-4.236-2.672-9.527-3.054-14.103-1.018
			c-37.715,16.786-69.061,44.313-90.649,79.604c-2.658,4.345-2.929,9.741-0.721,14.331c8.321,17.293,12.54,35.874,12.54,55.227
			c0,33.932-13.179,65.872-37.11,89.937c-3.209,3.227-4.779,7.736-4.269,12.259c0.342,3.037,8.173,69.219,45.56,145.62H241v-0.002
			V21.191C228.466,19.704,216.065,16.352,204.212,11.084z"/>
	</g>
</g>
<g>
	<g>
		<path d="M430.373,492.32l-21.028-64.049H103.07L82.042,492.32c-1.5,4.569-0.718,9.581,2.103,13.477
			c2.821,3.896,7.339,6.202,12.149,6.202h319.827c4.81,0,9.328-2.307,12.149-6.202C431.091,501.901,431.873,496.89,430.373,492.32z"
			/>
	</g>
</g>
<g>
</g>
<g>
</g>
<g>
</g>
<g>
</g>
<g>
</g>
<g>
</g>
<g>
</g>
<g>
</g>
<g>
</g>
<g>
</g>
<g>
</g>
<g>
</g>
<g>
</g>
<g>
</g>
<g>
</g>
</svg>
