<?xml version="1.0" encoding="iso-8859-1"?>
<!-- Generator: Adobe Illustrator 19.0.0, SVG Export Plug-In . SVG Version: 6.00 Build 0)  -->
<svg version="1.1" id="Capa_1" xmlns="http://www.w3.org/2000/svg" xmlns:xlink="http://www.w3.org/1999/xlink" x="0px" y="0px"
	 viewBox="0 0 512 512" style="enable-background:new 0 0 512 512;" xml:space="preserve">
<g>
	<g>
		<g>
			<path d="M256,137.143c84.114,0,158.537,31.781,191.826,79.543c0-0.631,0.174-1.234,0.174-1.829
				c0-57.975-86.135-105.143-192-105.143S64,156.882,64,214.857c0,0.631,0.155,1.234,0.174,1.829
				C97.463,168.923,171.886,137.143,256,137.143z"/>
			<path d="M256,73.143C114.843,73.143,0,155.173,0,256s114.843,182.857,256,182.857S512,356.827,512,256S397.157,73.143,256,73.143
				z M256,91.429c117.943,0,210.286,54.217,210.286,123.429S373.943,338.286,256,338.286S45.714,284.069,45.714,214.857
				S138.057,91.429,256,91.429z M73.143,324.571h-4.571v4.571c0,5.049-4.093,9.143-9.143,9.143c-5.049,0-9.143-4.093-9.143-9.143
				v-4.571h-4.571c-5.049,0-9.143-4.093-9.143-9.143s4.093-9.143,9.143-9.143h4.571v-4.571c0-5.049,4.093-9.143,9.143-9.143
				c5.049,0,9.143,4.093,9.143,9.143v4.571h4.571c5.049,0,9.143,4.093,9.143,9.143S78.192,324.571,73.143,324.571z M164.571,379.429
				H160V384c0,5.049-4.093,9.143-9.143,9.143c-5.049,0-9.143-4.093-9.143-9.143v-4.571h-4.571c-5.049,0-9.143-4.093-9.143-9.143
				c0-5.049,4.093-9.143,9.143-9.143h4.571v-4.571c0-5.049,4.093-9.143,9.143-9.143c5.049,0,9.143,4.093,9.143,9.143v4.571h4.571
				c5.049,0,9.143,4.093,9.143,9.143C173.714,375.335,169.621,379.429,164.571,379.429z M269.714,397.714h-4.571v4.571
				c0,5.049-4.093,9.143-9.143,9.143s-9.143-4.093-9.143-9.143v-4.571h-4.571c-5.049,0-9.143-4.093-9.143-9.143
				c0-5.049,4.093-9.143,9.143-9.143h4.571v-4.571c0-5.049,4.093-9.143,9.143-9.143s9.143,4.093,9.143,9.143v4.571h4.571
				c5.049,0,9.143,4.093,9.143,9.143C278.857,393.621,274.764,397.714,269.714,397.714z M374.857,379.429h-4.571V384
				c0,5.049-4.093,9.143-9.143,9.143S352,389.049,352,384v-4.571h-4.571c-5.049,0-9.143-4.093-9.143-9.143
				c0-5.049,4.093-9.143,9.143-9.143H352v-4.571c0-5.049,4.093-9.143,9.143-9.143s9.143,4.093,9.143,9.143v4.571h4.571
				c5.049,0,9.143,4.093,9.143,9.143C384,375.335,379.907,379.429,374.857,379.429z M466.286,324.571h-4.571v4.571
				c0,5.049-4.093,9.143-9.143,9.143c-5.049,0-9.143-4.093-9.143-9.143v-4.571h-4.571c-5.049,0-9.143-4.093-9.143-9.143
				s4.093-9.143,9.143-9.143h4.571v-4.571c0-5.049,4.093-9.143,9.143-9.143c5.049,0,9.143,4.093,9.143,9.143v4.571h4.571
				c5.049,0,9.143,4.093,9.143,9.143S471.335,324.571,466.286,324.571z"/>
		</g>
	</g>
</g>
<g>
</g>
<g>
</g>
<g>
</g>
<g>
</g>
<g>
</g>
<g>
</g>
<g>
</g>
<g>
</g>
<g>
</g>
<g>
</g>
<g>
</g>
<g>
</g>
<g>
</g>
<g>
</g>
<g>
</g>
</svg>
