<?xml version="1.0" encoding="utf-8"?>
<svg id="Layer_1_1_" enable-background="new 0 0 64 64" height="512" viewBox="0 0 64 64" width="512" xmlns="http://www.w3.org/2000/svg">
  <path d="m47.293 28.707-5.032-5.032c-.723-.563-1.373-1.213-1.936-1.936l-4.032-4.032c-.356-.356-.825-.535-1.293-.535s-.937.178-1.293.535c-.713.713-.713 1.873 0 2.586l11 11c.713.713 1.873.713 2.586 0s.713-1.873 0-2.586z"/>
  <path d="m58 15c0-1.217-.246-2.377-.685-3.436.885-2.14.115-4.134-.315-4.564-.432-.432-2.424-1.204-4.563-.315-1.06-.439-2.22-.685-3.437-.685-4.962 0-9 4.038-9 9 0 2.033.686 3.904 1.827 5.413l1.76 1.76c1.317.996 2.911 1.641 4.649 1.788-3.614-1.169-6.236-4.563-6.236-8.561 0-4.08 3.32-7.4 7.4-7.4 3.375 0 6.12 2.746 6.12 6.12 0 2.81-2.286 5.096-5.096 5.096-2.358 0-4.277-1.918-4.277-4.277 0-1.997 1.625-3.621 3.622-3.621v2c-.894 0-1.622.727-1.622 1.621 0 1.255 1.021 2.277 2.277 2.277 1.707 0 3.096-1.389 3.096-3.096 0-2.272-1.848-4.12-4.12-4.12-2.978 0-5.4 2.422-5.4 5.4 0 3.86 3.14 7 7 7v1.368c4.002-.913 7-4.494 7-8.768z"/>
  <path d="M 33.363 34.45 C 36.815 37.035 34.561 30.295 34.9 33.085 L 39.543 28.958 L 35.043 24.458 L 30.903 29.116 C 32.844 29.087 27.542 27.455 29.555 30.631 L 4.374 58.96 L 5.041 59.627 L 33.363 34.45 Z"/>
</svg>