<?xml version="1.0" encoding="utf-8"?>
<svg height="512pt" viewBox="0 0 512.04095 512" width="512pt" xmlns="http://www.w3.org/2000/svg">
  <path d="m476.554688 121.621094c17.425781-17.417969 22.644531-43.621094 13.21875-66.386719-9.425782-22.761719-31.636719-37.609375-56.277344-37.609375-24.636719 0-46.851563 14.847656-56.277344 37.609375-9.425781 22.765625-4.207031 48.96875 13.222656 66.386719 23.796875 23.738281 62.316406 23.738281 86.113282 0zm-26.308594-86.289063c4.878906 0 8.828125 3.949219 8.828125 8.828125 0 4.875-3.949219 8.824219-8.828125 8.824219-4.875 0-8.824219-3.949219-8.824219-8.824219 0-4.878906 3.949219-8.828125 8.824219-8.828125zm-60.300782 28.6875c4.304688-9.617187 12.6875-16.804687 22.847657-19.597656 4.710937-1.171875 9.488281 1.679687 10.6875 6.386719 1.199219 4.707031-1.628907 9.496094-6.328125 10.722656-4.804688 1.453125-8.777344 4.859375-10.945313 9.382812-2.84375 7.0625-.257812 17.613282 7.46875 30.492188 1.691407 2.703125 1.792969 6.113281.261719 8.914062-1.527344 2.800782-4.453125 4.558594-7.644531 4.59375-3.191407.039063-6.152344-1.652343-7.75-4.417968-10.972657-18.21875-13.824219-33.851563-8.597657-46.476563zm0 0"/>
  <path d="m371.347656 149.808594c-2.441406.113281-4.8125-.828125-6.507812-2.589844-1.722656-1.71875-2.65625-4.070312-2.585938-6.503906-.050781-13.535156-6.257812-26.3125-16.867187-34.71875 4.011719 17.445312-1.257813 35.730468-13.941407 48.367187l-38.074218 38.230469 13.050781 13.046875c2.292969 2.21875 3.214844 5.5 2.40625 8.585937-.808594 3.085938-3.21875 5.496094-6.304687 6.304688-3.085938.808594-6.371094-.113281-8.585938-2.40625l-13.027344-13.03125-172.554687 173.242188 24.980469 24.964843 58.023437-58.261719-12.164063-12.175781c-3.34375-3.460937-3.296874-8.96875.109376-12.375 3.40625-3.402343 8.910156-3.453125 12.375-.105469l12.144531 12.144532 49.214843-49.433594-12.050781-12.046875c-3.34375-3.464844-3.296875-8.972656.109375-12.375 3.40625-3.40625 8.910156-3.453125 12.375-.109375l12.023438 12.023438 90.921875-91.285157c12.863281-12.773437 31.5-17.832031 49.054687-13.320312-8.390625-10.214844-20.90625-16.144531-34.125-16.171875zm0 0"/>
  <path d="m55.496094 431.398438 12.578125 12.585937c2.296875 2.21875 3.214843 5.5 2.40625 8.585937-.804688 3.085938-3.214844 5.496094-6.300781 6.304688-3.089844.808594-6.371094-.113281-8.585938-2.40625l-12.5625-12.5625-37.84375 37.960938c-5.0625 5.050781-6.578125 12.65625-3.839844 19.261718 2.742188 6.609375 9.195313 10.90625 16.347656 10.890625 4.691407.015625 9.191407-1.855469 12.492188-5.191406l90.675781-91.027344-24.964843-24.964843zm0 0"/>
</svg>