<?xml version="1.0" encoding="utf-8"?>
<svg id="_x33_0" enable-background="new 0 0 64 64" height="512" viewBox="0 0 64 64" width="512" xmlns="http://www.w3.org/2000/svg">
  <g>
    <path d="m29.242 34.758-1.071 5.89 33.448-36.235c.245-.266.381-.614.381-.975 0-.794-.644-1.438-1.438-1.438-.362 0-.71.136-.975.381l-36.235 33.448z"/>
    <path d="m21.586 44h-.172l-3.5 3.5 1.315 1.314 5.02-2.151z"/>
    <path d="m6.122 55.536c-.346-.346-.805-.536-1.293-.536-1.009 0-1.829.82-1.829 1.829 0 2.3 1.871 4.171 4.171 4.171 1.009 0 1.829-.82 1.829-1.829 0-.488-.19-.947-.536-1.293z"/>
    <path d="m20 42.586v-.172l-2.663-2.663-2.151 5.02 1.314 1.315z"/>
    <path d="m22.115 40.471 2.915-2.915-5.973 1.086 2.074 2.075z"/>
    <path d="m6.835 53.579c.25.155.488.33.701.543l2.343 2.343c.213.213.388.451.543.701l7.164-7.166-3.586-3.586zm4.165.421c-.552 0-1-.448-1-1s.448-1 1-1 1 .448 1 1-.448 1-1 1zm4-4c0 .552-.448 1-1 1s-1-.448-1-1 .448-1 1-1 1 .448 1 1z"/>
    <path d="m26.444 38.97-2.915 2.915-.246.984 2.075 2.074z"/>
  </g>
</svg>