<svg height="512pt" viewBox="0 0 512 512" width="512pt" xmlns="http://www.w3.org/2000/svg"><path d="m271 346c0-8.277344-6.722656-15-15-15s-15 6.722656-15 15 6.722656 15 15 15 15-6.722656 15-15zm0 0"/><path d="m386.574219 346c-18.808594-21.664062-71.144531-75-130.574219-75s-111.769531 53.335938-130.574219 75c18.808594 21.664062 71.144531 75 130.574219 75s111.769531-53.335938 130.574219-75zm-175.574219 0c0-24.8125 20.1875-45 45-45s45 20.1875 45 45-20.1875 45-45 45-45-20.1875-45-45zm0 0"/><path d="m256 451c-89.324219 0-159.097656-92.109375-162.027344-96.035156l-2.703125-3.621094c2.855469 88.5 75.550781 160.65625 164.730469 160.65625s161.875-72.15625 164.730469-160.65625l-2.703125 3.621094c-2.929688 3.925781-72.703125 96.035156-162.027344 96.035156zm0 0"/><path d="m512 15.4375-25.722656-15.4375-7.65625 17.476562c-3.730469-1-7.578125-1.710937-11.621094-1.710937-24.8125 0-45 20.1875-45 45 0 8.050781 2.296875 15.503906 6.011719 22.046875-7.09375 6.671875-15.558594 12.917969-23.410157 18.738281-7.800781-6.488281-17.6875-10.550781-28.601562-10.550781-24.8125 0-45 20.1875-45 45 0 .996094.230469 1.929688.296875 2.910156-11.328125 3.585938-22.84375 6.351563-34.550781 8.285156-7.144532-15.417968-22.667969-26.195312-40.746094-26.195312s-33.601562 10.777344-40.746094 26.191406c-11.707031-1.929687-23.222656-4.695312-34.550781-8.28125.066406-.980468.296875-1.914062.296875-2.910156 0-24.816406-20.1875-45-45-45-10.921875 0-20.808594 4.0625-28.609375 10.558594-7.679687-5.691406-16.015625-11.808594-23.019531-18.367188 3.472656-6.382812 5.628906-13.578125 5.628906-21.339844 0-24.816406-20.1875-45-45-45-3.839844 0-7.503906.628907-11.066406 1.539063l-8.210938-18.390625-25.722656 15.4375 8.992188 19.695312c-5.574219 7.496094-8.992188 16.679688-8.992188 26.71875 0 24.8125 20.1875 45 45 45 6.070312 0 11.84375-1.242187 17.132812-3.429687 9.054688 8.628906 19.640626 16.609375 29.738282 23.929687-.546875 2.804688-.871094 5.6875-.871094 8.648438 0 24.8125 20.1875 45 45 45 12.972656 0 24.589844-5.601562 32.808594-14.410156 14.304687 4.691406 28.910156 8.210937 43.75 10.542968.84375 3.277344 2.070312 6.375 3.589844 9.320313-69.960938 17.546875-122.464844 79.417969-124.878907 154.203125l2.703125-3.621094c2.929688-3.925781 72.703125-96.035156 162.027344-96.035156s159.097656 92.109375 162.027344 96.035156l2.703125 3.621094c-2.414063-74.785156-54.917969-136.65625-124.878907-154.203125 1.519532-2.945313 2.746094-6.042969 3.589844-9.320313 14.839844-2.332031 29.445313-5.851562 43.75-10.542968 8.21875 8.808594 19.835938 14.410156 32.808594 14.410156 24.8125 0 45-20.1875 45-45 0-2.964844-.324219-5.855469-.875-8.664062 10.445312-7.574219 21.316406-15.824219 30.589844-24.734376 5.0625 1.976563 10.527344 3.164063 16.285156 3.164063 24.8125 0 45-20.1875 45-45 0-9.824219-3.253906-18.847656-8.613281-26.253906zm0 0"/></svg>